<svg xmlns="http://www.w3.org/2000/svg" viewBox="0 0 512 512">
  <defs>
    <radialGradient id="bg" cx="35%" cy="30%" r="70%">
      <stop offset="0%" stop-color="#fef3c7"/>
      <stop offset="38%" stop-color="#7dd3fc"/>
      <stop offset="100%" stop-color="#0f172a"/>
    </radialGradient>
    <linearGradient id="robe" x1="0" x2="1">
      <stop offset="0%" stop-color="#0f766e"/>
      <stop offset="100%" stop-color="#164e63"/>
    </linearGradient>
  </defs>
  <rect width="512" height="512" rx="48" fill="#091018"/>
  <circle cx="256" cy="256" r="196" fill="url(#bg)" opacity="0.35"/>
  <ellipse cx="256" cy="410" rx="122" ry="72" fill="url(#robe)"/>
  <circle cx="256" cy="206" r="96" fill="#f5d0a9"/>
  <path d="M160 184c12-58 52-102 96-102s84 44 96 102c-20-24-49-38-96-38s-76 14-96 38Z" fill="#0f172a"/>
  <circle cx="220" cy="210" r="10" fill="#111827"/>
  <circle cx="292" cy="210" r="10" fill="#111827"/>
  <path d="M220 262c18 16 54 16 72 0" fill="none" stroke="#7c2d12" stroke-width="10" stroke-linecap="round"/>
  <path d="M176 352c28-26 52-38 80-38s52 12 80 38" fill="none" stroke="#67e8f9" stroke-opacity="0.45" stroke-width="10" stroke-linecap="round"/>
</svg>