<svg xmlns="http://www.w3.org/2000/svg" viewBox="0 0 512 512">
  <rect width="512" height="512" rx="48" fill="#0b1018"/>
  <circle cx="256" cy="256" r="190" fill="#182c46"/>
  <ellipse cx="256" cy="406" rx="124" ry="70" fill="#475569"/>
  <circle cx="256" cy="205" r="96" fill="#e5c09b"/>
  <path d="M158 180c16-54 54-96 98-96s82 42 98 96c-20-20-55-32-98-32s-78 12-98 32Z" fill="#cbd5e1"/>
  <circle cx="220" cy="210" r="10" fill="#0f172a"/>
  <circle cx="292" cy="210" r="10" fill="#0f172a"/>
  <path d="M224 262c12 6 52 6 64 0" fill="none" stroke="#7c2d12" stroke-linecap="round" stroke-width="10"/>
  <path d="M156 192c-18 6-28 18-30 36" fill="none" stroke="#93c5fd" stroke-linecap="round" stroke-width="8"/>
  <path d="M126 176c-24 10-36 26-40 50" fill="none" stroke="#93c5fd" stroke-linecap="round" stroke-opacity="0.7" stroke-width="8"/>
</svg>
